<svg viewBox="0 0 16 16" width="16" height="16" xmlns="http://www.w3.org/2000/svg" fill-rule="evenodd" clip-rule="evenodd" stroke-linejoin="round" stroke-miterlimit="1.414">
  <path d="M12 3c0-.552-.448-1-1-1H5c-.552 0-1 .448-1 1v2c0 .552.448 1 1 1h6c.552 0 1-.448 1-1V3zm-1.75.5h-4.5c-.138 0-.25.112-.25.25v.5c0 .138.112.25.25.25h4.5c.138 0 .25-.112.25-.25v-.5c0-.138-.112-.25-.25-.25z" fill="#686f7a"/>
  <g fill="#29cae5">
    <path d="M4 11.75c0-.414-.336-.75-.75-.75H.75c-.414 0-.75.336-.75.75v1.5c0 .414.336.75.75.75h2.5c.414 0 .75-.336.75-.75v-1.5zM10 11.75c0-.414-.336-.75-.75-.75h-2.5c-.414 0-.75.336-.75.75v1.5c0 .414.336.75.75.75h2.5c.414 0 .75-.336.75-.75v-1.5zM15.998 11.75c0-.414-.336-.75-.75-.75h-2.5c-.413 0-.75.336-.75.75v1.5c0 .414.337.75.75.75h2.5c.414 0 .75-.336.75-.75v-1.5z"/>
  </g>
  <path d="M1.5 8.5h6V6h1v2.5h6V11h-1V9.5h-11V11h-1V8.5z" fill="#aebdc3"/>
</svg>
